<?xml version="1.0" standalone="no"?>
<!DOCTYPE svg PUBLIC "-//W3C//DTD SVG 20010904//EN"
 "http://www.w3.org/TR/2001/REC-SVG-20010904/DTD/svg10.dtd">
<svg version="1.0" xmlns="http://www.w3.org/2000/svg"
 width="600.000000pt" height="480.000000pt" viewBox="0 0 600.000000 480.000000"
 preserveAspectRatio="xMidYMid meet">

<g transform="translate(0.000000,480.000000) scale(0.100000,-0.100000)"
fill="#000000" stroke="none">
<path d="M0 2400 l0 -2400 3000 0 3000 0 0 2400 0 2400 -3000 0 -3000 0 0
-2400z m3611 1574 c129 -24 126 -20 110 -150 -16 -131 -22 -144 -63 -144 -54
0 -202 31 -217 45 -12 11 -12 31 -2 121 7 59 17 116 22 126 12 22 36 23 150 2z
m649 -195 c194 -36 228 -45 248 -66 12 -13 22 -35 22 -48 0 -13 5 -47 11 -76
l11 -51 133 -64 c83 -39 135 -70 139 -81 3 -10 24 -146 46 -302 30 -213 37
-287 29 -298 -8 -9 -39 -13 -109 -13 -72 0 -101 -4 -109 -14 -10 -11 -8 -44 8
-148 12 -73 37 -234 56 -358 19 -124 40 -253 46 -287 l11 -62 54 -11 c119 -25
294 -137 294 -188 0 -28 -34 -62 -61 -62 -12 0 -58 18 -102 40 -45 22 -99 43
-119 47 -43 6 -44 2 -32 -91 7 -46 8 -47 72 -78 209 -101 295 -342 195 -548
-35 -72 -118 -154 -190 -188 -53 -24 -69 -27 -173 -27 -106 0 -119 2 -174 29
-159 78 -253 254 -225 425 20 128 111 253 218 303 57 25 59 31 40 118 -13 59
-13 59 -121 3 -75 -39 -177 -139 -219 -214 -53 -95 -79 -202 -79 -326 l0 -63
-1259 0 -1259 0 -26 -54 c-40 -81 -104 -147 -182 -187 -66 -33 -72 -34 -183
-34 -108 0 -120 2 -176 29 -75 37 -152 115 -191 192 -27 55 -29 67 -29 174 0
110 1 118 32 175 40 76 121 157 190 190 197 93 442 8 537 -187 l28 -58 75 0
c72 0 74 1 67 23 -50 161 -147 279 -290 351 -118 59 -259 72 -397 35 -79 -22
-79 -22 -105 -2 -37 27 -42 81 -10 110 55 51 265 84 409 64 324 -46 550 -232
617 -508 l17 -73 960 0 960 0 14 57 c53 228 241 419 496 505 44 15 81 33 83
41 2 7 -7 74 -18 148 -12 74 -39 249 -60 389 -65 422 -129 839 -145 945 -9 54
-22 107 -31 116 -10 11 -71 27 -185 49 -98 19 -176 39 -185 47 -16 16 -14 42
11 142 15 60 28 74 65 67 14 -2 126 -23 250 -47z m-264 -404 c197 -36 188 -30
181 -118 -10 -132 -29 -256 -42 -274 -12 -16 -22 -15 -169 12 -86 16 -164 34
-173 40 -15 11 -14 26 4 174 19 145 31 191 53 191 4 0 69 -11 146 -25z"/>
<path d="M1198 1281 c-29 -26 -33 -35 -33 -81 0 -46 4 -55 33 -81 47 -43 102
-41 148 5 28 28 34 42 34 76 0 34 -6 48 -34 76 -46 46 -101 48 -148 5z"/>
<path d="M4664 1276 c-28 -28 -34 -42 -34 -76 0 -34 6 -48 34 -76 28 -28 42
-34 76 -34 34 0 48 6 76 34 28 28 34 42 34 76 0 34 -6 48 -34 76 -28 28 -42
34 -76 34 -34 0 -48 -6 -76 -34z"/>
</g>
</svg>
