<svg width="768" height="768" xmlns="http://www.w3.org/2000/svg"><path fill="none" stroke="white" stroke-width="2" d="M 582.00,315.20 571.00,314.20 569.80,304.00 562.00,299.20 547.00,302.20 539.80,296.00 536.80,284.00 543.00,270.80 556.00,271.80 562.00,284.80 582.20,296.00 582.00,315.20 Z" /><path fill="none" stroke="white" stroke-width="2" d="M 475.00,599.20 444.00,598.20 429.00,593.20 395.00,556.20 379.00,548.20 245.00,548.20 247.80,532.00 256.80,511.00 280.80,479.00 313.00,456.80 482.00,453.80 483.00,458.20 454.20,481.00 444.20,501.00 444.20,521.00 455.20,542.00 476.00,556.80 491.00,559.80 539.00,559.80 564.00,550.80 578.00,540.80 595.80,520.00 604.80,504.00 612.80,473.00 607.80,428.00 575.80,355.00 596.00,351.80 605.80,342.00 606.80,329.00 598.00,316.80 619.00,307.80 650.00,302.80 653.20,308.00 651.20,363.00 620.00,357.20 615.00,358.20 614.20,363.00 653.20,412.00 664.20,435.00 666.20,456.00 619.20,544.00 590.00,580.20 565.00,595.20 475.00,599.20 Z" /><path fill="none" stroke="white" stroke-width="2" d="M 573.00,342.20 559.00,342.20 554.80,338.00 558.00,325.80 592.20,328.00 590.00,341.20 573.00,342.20 Z" /><path fill="none" stroke="white" stroke-width="2" d="M 353.00,438.20 313.00,437.20 304.80,424.00 307.80,413.00 324.00,403.80 459.00,402.80 484.00,412.80 492.20,428.00 490.00,437.20 353.00,438.20 Z" /><path fill="none" stroke="white" stroke-width="2" d="M 633.00,564.20 628.80,564.00 629.80,559.00 681.00,468.80 706.00,465.80 738.00,473.80 764.00,489.80 782.20,511.00 711.00,509.20 695.00,513.20 679.00,522.20 646.00,559.20 633.00,564.20 Z" /><path fill="none" stroke="white" stroke-width="2" d="M 244.00,498.20 236.80,494.00 240.80,470.00 245.00,466.80 268.00,466.80 244.00,498.20 Z" /><path fill="none" stroke="white" stroke-width="2" d="M 725.00,651.20 696.00,650.20 670.00,638.20 652.80,620.00 643.80,599.00 641.80,583.00 660.00,573.80 672.00,558.80 676.20,562.00 673.20,592.00 684.20,611.00 708.00,622.80 731.00,618.80 748.80,602.00 753.80,584.00 751.80,570.00 737.00,550.20 717.00,542.20 707.80,527.00 762.00,527.80 782.20,564.00 781.20,603.00 762.00,633.20 740.00,647.20 725.00,651.20 Z" /><path fill="none" stroke="white" stroke-width="2" d="M 715.00,601.20 703.00,598.20 695.80,589.00 700.80,575.00 683.80,543.00 691.00,533.80 713.20,566.00 726.00,571.80 730.20,578.00 729.20,592.00 715.00,601.20 Z" /><path fill="none" stroke="white" stroke-width="2" d="M 332.00,651.20 296.00,647.20 266.80,626.00 253.80,599.00 254.00,565.80 284.00,565.80 281.20,588.00 286.20,602.00 301.00,616.80 319.00,622.80 339.00,618.80 353.80,606.00 361.80,585.00 360.00,565.80 378.00,565.80 389.20,576.00 391.20,594.00 380.20,621.00 358.00,642.20 332.00,651.20 Z" /><path fill="none" stroke="white" stroke-width="2" d="M 326.00,599.20 311.00,596.20 304.80,588.00 304.80,575.00 313.00,566.80 330.00,566.80 339.20,577.00 339.20,588.00 326.00,599.20 Z" /><path fill="none" stroke="white" stroke-width="2" d="M 247.00,678.20 240.00,678.20 232.80,672.00 237.00,661.80 273.00,660.80 281.20,670.00 275.00,677.20 247.00,678.20 Z" /><path fill="none" stroke="white" stroke-width="2" d="M 411.00,677.20 374.00,677.20 366.80,667.00 374.00,660.80 411.00,660.80 417.20,668.00 416.20,674.00 411.00,677.20 Z" /><path fill="none" stroke="white" stroke-width="2" d="M 667.00,677.20 441.00,677.20 433.80,668.00 442.00,660.80 664.00,660.80 673.20,670.00 667.00,677.20 Z" /><path fill="none" stroke="white" stroke-width="2" d="M 790.00,677.20 754.00,677.20 749.80,668.00 757.00,660.80 788.00,660.80 797.20,668.00 790.00,677.20 Z" /><path fill="none" stroke="white" stroke-width="2" d="M 329.00,678.20 313.00,678.20 308.80,672.00 311.00,667.80 328.00,667.80 342.20,673.00 340.00,677.20 329.00,678.20 Z" /><path fill="none" stroke="white" stroke-width="2" d="M 708.00,677.20 698.80,673.00 703.00,668.80 719.00,668.80 722.20,672.00 721.00,676.20 708.00,677.20 Z" /></svg>